<svg width="11" height="8" viewBox="0 0 11 8" fill="none" xmlns="http://www.w3.org/2000/svg">
<path fill-rule="evenodd" clip-rule="evenodd" d="M1.29297 0C1.84525 0 2.29297 0.447715 2.29297 1V3C2.29297 3.79565 2.60904 4.55871 3.17165 5.12132C3.73426 5.68393 4.49732 6 5.29297 6C6.08862 6 6.85168 5.68393 7.41429 5.12132C7.9769 4.55871 8.29297 3.79565 8.29297 3V1C8.29297 0.447715 8.74068 0 9.29297 0C9.84525 0 10.293 0.447715 10.293 1V3C10.293 4.32608 9.76618 5.59785 8.8285 6.53553C7.89082 7.47321 6.61905 8 5.29297 8C3.96689 8 2.69512 7.47321 1.75743 6.53553C0.819753 5.59785 0.292969 4.32608 0.292969 3V1C0.292969 0.447715 0.740684 0 1.29297 0Z" fill="#A259FF"/>
</svg>
